PathFileType	4	(X/Y/Z)	C:/Users/beibeiliu/ov580/test_trc/User2\sequence.12_training_dense_right.trc
DataRate	CameraRate	NumFrames	NumMarkers	Units	OrigDataRate	OrigDataStartFrame	OrigNumFrames
120	120	10	19	mm	120	1	98
Frame#	Time	ThumbCMC			ThumbMCP			ThumbIP			ThumbTip			IndexMCP			IndexPIP			IndexTip			MiddleMCP			MiddlePIP			MiddleTip			RingMCP			RingPIP			RingTip			PinkyMCP			PinkyPIP			PinkyTip			BackHand1			BackHand2			BackHand3	
		X0	Y0	Z0	X1	Y1	Z1	X2	Y2	Z2	X3	Y3	Z3	X4	Y4	Z4	X5	Y5	Z5	X6	Y6	Z6	X7	Y7	Z7	X8	Y8	Z8	X9	Y9	Z9	X10	Y10	Z10	X11	Y11	Z11	X12	Y12	Z12	X13	Y13	Z13	X14	Y14	Z14	X15	Y15	Z15	X16	Y16	Z16	X17	Y17	Z17	X18	Y18	Z18	
0	0	79.5083	-19.5948	-8.06192	49.6473	-25.059	-24.2026	25.4189	-30.1347	-48.3354	9.10075	-36.2786	-64.7046	78.5188	0.516176	-90.1264	66.0224	-0.794852	-118.224	54.6109	0.318479	-139.056	110.707	3.12883	-101.107	103.035	4.33811	-130.84	103.01	6.52476	-162.768	135.754	-7.65132	-99.3949	137.899	-6.76669	-125.93	141.868	-2.82906	-154.103	159.264	-24.5204	-85.5378	170.642	-27.5911	-106.957	182.7	-24.1732	-123.589	139.163	-3.86129	-43.0376	143.094	0.660122	-8.68646	107.137	4.00767	-21.4607	
1	0.00833333	76.7531	-19.2037	-13.8573	54.4653	-26.5207	-26.2388	27.312	-29.8275	-52.0129	7.87896	-36.5954	-63.9603	78.8023	0.540414	-91.0519	64.5799	1.69263	-117.735	57.6704	1.89757	-144.662	107.779	3.55288	-100.565	102.863	5.58566	-135.756	103.812	8.38861	-165.461	133.666	-5.71254	-102.415	142.305	-6.93339	-124.029	140.639	-1.75866	-154.969	158.327	-23.6996	-85.9948	171.289	-25.5621	-109.477	179.977	-21.5178	-130.658	138.818	-4.34758	-43.8598	143.19	-0.803874	-10.1211	106.244	5.14921	-25.2918	
2	0.0166667	77.0558	-19.7816	-9.58527	55.1272	-26.3665	-30.416	27.2528	-29.3431	-52.474	11.5077	-35.0444	-68.384	79.9071	1.95872	-92.2633	66.1609	2.69877	-114.753	60.5489	3.77688	-142.541	108.129	5.44561	-106.192	103.937	7.06477	-135.953	105.501	9.37983	-167.818	137.095	-5.69772	-101.903	138.73	-5.73449	-124.91	141.706	-2.30269	-154.805	159.122	-21.2777	-88.1646	170.159	-25.705	-108.679	178.628	-21.0415	-128.342	140.23	-3.67229	-45.686	146.598	-0.0889745	-13.7845	109.17	5.57019	-24.5761	
3	0.025	76.0225	-17.9596	-12.7946	53.6955	-24.9045	-27.8604	28.0512	-27.2268	-54.7839	9.59348	-33.3859	-69.661	78.9898	3.99369	-90.0078	65.6111	5.17609	-119.093	61.6879	6.42743	-144.601	113.115	6.28035	-104.929	108.543	7.89788	-137.917	108.788	8.92996	-166.851	136.128	-3.41307	-103.905	140.755	-3.75946	-129.179	140.77	-1.64272	-156.067	158.69	-20.8244	-87.5497	167.944	-24.8916	-108.078	180.656	-19.9262	-132.556	138.247	-0.922551	-45.5867	145.912	-2.01557	-11.3492	105.719	6.27722	-27.795	
4	0.0333333	75.6363	-15.3533	-14.5044	55.2832	-23.1217	-30.0284	28.898	-25.5003	-54.2522	11.2464	-31.5969	-71.9246	80.6126	6.59125	-94.5594	67.5614	7.62413	-116.466	63.1777	7.6198	-144.528	110.27	8.04138	-101.333	107.623	9.03841	-138.044	107.115	11.0874	-165.243	136.496	-4.10092	-99.5172	138.943	-2.71842	-130.388	142.214	0.26478	-157.843	160.304	-21.779	-85.3786	170.646	-22.9634	-112.737	181.147	-21.2056	-134.062	140.209	-1.53724	-42.9629	149.909	0.0455579	-12.0372	112.587	6.29237	-25.183	
5	0.0416667	76.6868	-15.6621	-16.4931	57.6768	-23.2242	-32.2662	32.7102	-26.9235	-52.4917	14.3641	-31.6502	-70.6549	79.2071	6.07938	-92.8863	71.7929	7.41053	-120.942	57.6577	9.05287	-146.187	113.725	7.98818	-102.415	111.725	9.59187	-135.306	107.969	11.0582	-164.156	136.626	-2.80051	-103.308	143.081	-3.0334	-127.378	140.896	-1.0753	-154.639	163.459	-21.4933	-88.7531	169.118	-23.5428	-110.024	184.572	-20.595	-134.186	144.712	-2.52167	-46.5787	147.237	-0.317236	-14.8502	112.399	6.93095	-29.5182	
6	0.05	78.9934	-16.9497	-16.2902	54.4597	-22.2247	-30.2883	27.9632	-25.0498	-54.4766	11.3842	-31.8419	-70.024	80.5059	6.08496	-93.6201	66.8108	7.98985	-119.723	63.154	8.29716	-146.96	111.031	8.85442	-103.346	109.494	9.37753	-135.299	108.709	10.7449	-166.487	140.949	-3.21187	-103.295	144.332	-3.55744	-127.642	144.9	-1.19696	-154.42	160.551	-21.3379	-86.8413	173.797	-25.6823	-111.41	184.883	-22.1305	-134.762	141.582	-0.844292	-43.3547	144.974	-0.274534	-12.3334	109.989	6.48809	-28.7089	
7	0.0583333	78.2029	-17.9067	-11.7598	54.5846	-22.5344	-30.6369	29.5019	-25.7636	-54.0367	11.4865	-30.7636	-72.0806	78.5422	6.97448	-92.9156	69.3377	7.58288	-122.332	60.2048	9.07414	-148.679	112.827	7.83485	-105.376	109.657	9.05821	-136.919	111.451	10.6373	-170.826	141.456	-4.43489	-103.988	145.519	-4.02813	-128.808	142.469	-0.344597	-154.101	160.815	-21.2774	-85.4079	170.034	-25.0018	-108.733	184.809	-21.5942	-131.077	140.55	0.655745	-47.3892	145.787	0.187518	-10.4096	107.931	7.02559	-25.2656	
8	0.0666667	79.9673	-17.8904	-17.1929	54.5245	-23.2792	-30.4679	31.873	-26.6418	-53.1954	12.4037	-32.0963	-70.2318	79.9425	6.17851	-94.7815	68.3863	8.50174	-120.152	62.7419	8.58303	-144.648	113.491	8.10894	-104.027	110.201	9.15563	-139.256	109.086	10.0294	-164.642	138.063	-3.26301	-99.9497	141.866	-4.14083	-126.167	144.368	-0.179553	-157.01	162.41	-21.0879	-86.918	169.797	-24.6447	-111.77	184.321	-24.2977	-129.104	144.663	-0.304439	-46.3062	148.353	-0.5464	-13.9875	111.172	5.23885	-25.0982	
9	0.075	77.9686	-17.3134	-12.0179	53.6955	-23.6809	-31.2271	30.2689	-26.3606	-53.0835	11.6601	-31.0007	-72.191	81.6899	6.47129	-95.4268	67.7042	6.92059	-116.66	60.6681	7.73674	-147.319	109.572	9.48437	-106.153	109.191	9.41215	-138.865	107.508	11.2676	-165.176	138.766	-3.31556	-100.164	140.562	-3.78461	-126.294	142.266	-0.871503	-155.693	164.212	-21.6989	-86.7477	170.735	-24.597	-110.787	180.499	-21.1082	-131.589	139.208	-2.28083	-43.6829	147.525	-0.959658	-15.2581	112.851	6.8425	-24.6676	
